<?xml version="1.0" encoding="utf-8"?>
<!-- Generator: Adobe Illustrator 19.1.0, SVG Export Plug-In . SVG Version: 6.00 Build 0)  -->
<svg version="1.1" id="Layer_1" xmlns="http://www.w3.org/2000/svg" xmlns:xlink="http://www.w3.org/1999/xlink" x="0px" y="0px"
	 width="64px" height="64px" viewBox="21 -21 64 64" enable-background="new 21 -21 64 64" xml:space="preserve">
<g>
	<polygon fill="#00AACD" points="53.4,0.42 34.3,35.42 72.5,35.42 	"/>
	<g>
		<path fill="#0B446A" d="M84.46,41.72H22.34L53.4-15.14L84.46,41.72z M30.9,37.15h45L53.4-4.05L30.9,37.15z"/>
	</g>
	<path fill="#0C4369" d="M75.25-5.76c0,3.8-1,7.3-2.8,10.4l1.5,0.8c2-3.4,3-7.2,3-11.2c0-3.8-1-7.5-2.8-10.8l-1.5,0.9
		C74.35-12.76,75.25-9.46,75.25-5.76z"/>
	<path fill="#0C4369" d="M68.6-5.71c0,2.6-0.7,5-1.9,7l1.5,0.8c1.3-2.3,2.1-5,2.1-7.9c0-2.7-0.7-5.2-1.9-7.4l-1.4,1
		C68-10.31,68.6-8.11,68.6-5.71z"/>
	<path fill="#0C4369" d="M30.95-5.36c0-3.8,1-7.3,2.8-10.4l-1.5-0.8c-2,3.4-3,7.2-3,11.2c0,3.8,1,7.5,2.8,10.8l1.5-0.9
		C31.85,1.64,30.95-1.76,30.95-5.36z"/>
	<path fill="#0C4369" d="M23.3-5.21c0-4.9,1.3-9.4,3.6-13.3l-1.9-1.2c-2.6,4.3-4,9.3-4,14.4c0,4.9,1.3,9.7,3.6,13.9l1.9-1.1
		C24.5,3.79,23.3-0.61,23.3-5.21z"/>
	<path fill="#0C4369" d="M82.7-5.81c0,4.9-1.3,9.4-3.6,13.3l1.9,1.1c2.6-4.3,4-9.3,4-14.4c0-4.9-1.3-9.7-3.6-13.9l-1.9,1.1
		C81.5-14.81,82.7-10.41,82.7-5.81z"/>
	<path fill="#0C4369" d="M37.8-5.41c0-2.6,0.7-5,1.9-7l-1.5-0.8c-1.3,2.3-2.1,5-2.1,7.9c0,2.7,0.7,5.2,1.9,7.4l1.5-0.9
		C38.4-0.81,37.8-3.11,37.8-5.41z"/>
	<g enable-background="new    ">
		<path fill="#FFFFFF" d="M52.48,27.37l-0.89-12.62V9.47h3.62v5.28l-0.84,12.62C54.37,27.36,52.48,27.36,52.48,27.37z M51.72,33.27
			v-3.33h3.36v3.33H51.72z"/>
	</g>
</g>
</svg>
