<?xml version="1.0" encoding="utf-8"?>
<!-- Generator: Adobe Illustrator 19.0.0, SVG Export Plug-In . SVG Version: 6.00 Build 0)  -->
<svg version="1.1"
	 id="Layer_1" xmlns:cc="http://creativecommons.org/ns#" xmlns:svg="http://www.w3.org/2000/svg" xmlns:sodipodi="http://sodipodi.sourceforge.net/DTD/sodipodi-0.dtd" xmlns:rdf="http://www.w3.org/1999/02/22-rdf-syntax-ns#" xmlns:inkscape="http://www.inkscape.org/namespaces/inkscape" xmlns:dc="http://purl.org/dc/elements/1.1/" inkscape:version="0.48.5 r10040" sodipodi:docname="bluemix-logo.svg"
	 xmlns="http://www.w3.org/2000/svg" xmlns:xlink="http://www.w3.org/1999/xlink" x="0px" y="0px" viewBox="48.2 -6 93.8 99"
	 style="enable-background:new 48.2 -6 93.8 99;" xml:space="preserve">
<style type="text/css">
</style>
<title  id="title3974">Bluemix logo</title>
<sodipodi:namedview  id="namedview13" inkscape:cy="319.13161" objecttolerance="10000" pagecolor="#ffffff" gridtolerance="10000" borderopacity="1" showgrid="false" fit-margin-top="0" bordercolor="#666666" guidetolerance="10000" inkscape:zoom="0.90621309" inkscape:cx="277.41119" fit-margin-left="0" showguides="true" fit-margin-bottom="0" fit-margin-right="0" inkscape:current-layer="Layer_1" inkscape:window-height="1232" inkscape:guide-bbox="true" inkscape:window-maximized="1" inkscape:window-x="0" inkscape:pageshadow="2" inkscape:pageopacity="0" inkscape:window-y="0" inkscape:window-width="2048">
	</sodipodi:namedview>
<g id="g3956" transform="translate(3.21875,-52.721671)">
	
		<path style="fill:#00B198;" id="engine-northeast" sodipodi:arg2="1.5707963" sodipodi:cx="-90.78598" sodipodi:type="star" sodipodi:sides="6" sodipodi:cy="-58.882366" sodipodi:arg1="1.0471976" sodipodi:r2="101.65717" sodipodi:r1="117.38359" inkscape:flatsided="true" inkscape:rounded="0" inkscape:randomized="0" inkscape:transform-center-x="-50.000002" inkscape:transform-center-y="-86.602542" d="
		M120,96.7L132.5,75L120,53.3H95L82.5,75L95,96.7H120z	">
<title  id="title3942">Northeast engine</title>
	</path>
	<path style="fill:#FFFFFF;" id="crown-engine-northeast" inkscape:connector-curvature="0" d="M94.6,52.7L81.7,75.1l12.9,22.4h25.8l12.9-22.4
		l-12.9-22.4C120.4,52.7,94.6,52.7,94.6,52.7z M95.4,54.1h24.2L131.7,75l-12.1,21H95.4L83.3,75C83.3,75.1,95.4,54.1,95.4,54.1z	">
<title  id="title3950">Crown for northeast engine</title>
	</path>
	
		<path style="fill:#00AED1;" id="engine-southeast" sodipodi:arg2="1.5707963" sodipodi:cx="-90.78598" sodipodi:type="star" sodipodi:sides="6" sodipodi:cy="-58.882366" sodipodi:arg1="1.0471976" sodipodi:r2="101.65717" sodipodi:r1="117.38359" inkscape:flatsided="true" inkscape:rounded="0" inkscape:randomized="0" inkscape:transform-center-x="-49.999999" inkscape:transform-center-y="86.602537" d="
		M82.5,118.4L95,140h25l12.5-21.7L120,96.6H95L82.5,118.4z	">
<title  id="title3944">Southeast engine</title>
	</path>
	<path id="crown-engine-southeast" inkscape:connector-curvature="0" style="fill:#FFFFFF;" d="M94.6,96l-12.9,22.4l12.9,22.4h25.8l12.9-22.4
		L120.4,96H94.6L94.6,96z M95.4,97.4h24.2l12.1,20.9l-12.1,21H95.4l-12.1-21L95.4,97.4L95.4,97.4z	">
<title  id="title3952">Crown for southeast engine</title>
	</path>
	
		<path style="fill:#3B4B54;" id="engine-west" sodipodi:arg2="1.5707963" sodipodi:cx="-90.78598" sodipodi:type="star" sodipodi:sides="6" sodipodi:cy="-58.882366" sodipodi:arg1="1.0471976" sodipodi:r2="101.65717" sodipodi:r1="117.38359" inkscape:flatsided="true" inkscape:rounded="0" inkscape:randomized="0" d="
		M82.5,75.1h-25L45,96.8l12.5,21.7h25L95,96.8L82.5,75.1z	">
<title  id="title3940">West engine</title>
	</path>
	<path id="crown-engine-west" inkscape:connector-curvature="0" style="fill:#FFFFFF;" d="M57.1,74.4L44.2,96.7l12.9,22.4h25.8l12.9-22.4
		L82.9,74.3L57.1,74.4L57.1,74.4z M57.9,75.8h24.2l12.1,20.9l-12.1,21H57.9l-12.1-21L57.9,75.8z	">
<title  id="title3954">Crown for west engine</title>
	</path>
	<path id="triangle" inkscape:connector-curvature="0" style="fill:#FFFFFF;" d="M82.1,74.4v44.7l38.7-22.4L82.1,74.4z M83.5,76.8L118,96.7
		l-34.5,19.9V76.8z	">
<title  id="title3948">Triangle</title>
	</path>
	<path id="circle" inkscape:connector-curvature="0" style="fill:#FFFFFF;" d="M95,71.7c-13.8,0-25,11.2-25,25s11.2,25,25,25s25-11.2,25-25
		S108.8,71.7,95,71.7z M95,73.1c13,0,23.6,10.6,23.6,23.6S108,120.3,95,120.3s-23.6-10.6-23.6-23.6S81.9,73.1,95,73.1z	">
<title  id="title3946">Circle</title>
	</path>
</g>
</svg>
