<?xml version="1.0" encoding="utf-8"?>
<!-- Generator: Adobe Illustrator 19.0.0, SVG Export Plug-In . SVG Version: 6.00 Build 0)  -->
<svg version="1.1" id="pantone_-_square" xmlns="http://www.w3.org/2000/svg" xmlns:xlink="http://www.w3.org/1999/xlink" x="0px"
	 y="0px" viewBox="0 0 718.5 598.5" style="enable-background:new 0 0 718.5 598.5;" xml:space="preserve">
<style type="text/css">
	.st0{fill:#338899;}
	.st1{fill:#99DDDD;}
	.st2{fill:#231F20;}
</style>
<g id="outlines_4_">
	<path class="st0" d="M695.8,227.1C663.9,80.2,487.8-6.2,302.5,34.1C117.2,74.4-7.1,226.1,24.8,373
		c31.9,146.8,208,233.2,393.3,192.9C603.4,525.6,727.7,373.9,695.8,227.1z M347.9,483.3c-103.4,0-187.2-83.8-187.2-187.2
		c0-103.4,83.8-187.2,187.2-187.2c103.4,0,187.2,83.8,187.2,187.2C535.1,399.5,451.3,483.3,347.9,483.3z"/>
	<path class="st1" d="M394.6,64.1c-132.3,0-239.6,107.3-239.6,239.6c0,132.3,107.3,239.6,239.6,239.6
		c132.3,0,239.6-107.3,239.6-239.6C634.2,171.4,526.9,64.1,394.6,64.1z M347.9,480.3c-101.7,0-184.2-82.5-184.2-184.2
		c0-101.7,82.4-184.2,184.2-184.2c101.7,0,184.2,82.5,184.2,184.2C532.1,397.8,449.6,480.3,347.9,480.3z"/>
	<g>
		<path class="st2" d="M281.9,277.7l-20.2-42.3c-4.8-10-9.8-21.4-11.5-26.7l-0.4,0.4c0.7,7.6,0.8,17.1,0.9,25l0.5,43.6h-14.7v-90.1
			h16.9l21.9,44c4.2,8.3,8.1,19,9.2,23.2l0.4-0.4c-0.4-4.6-1.3-17.5-1.3-25.7l-0.3-41.2h14.2v90.1H281.9z"/>
		<path class="st2" d="M324.5,248.7v1c0,9.1,3.4,18.8,16.3,18.8c6.1,0,11.5-2.2,16.4-6.5l5.6,8.7c-6.9,5.9-14.8,8.7-23.7,8.7
			c-18.6,0-30.3-13.4-30.3-34.5c0-11.6,2.5-19.3,8.2-25.8c5.3-6.1,11.9-8.9,20.2-8.9c6.5,0,12.5,1.7,18.1,6.8
			c5.7,5.2,8.6,13.3,8.6,28.7v3H324.5z M337.2,221.1c-8.1,0-12.5,6.4-12.5,17.1H349C349,227.4,344.3,221.1,337.2,221.1z"/>
		<path class="st2" d="M440,278h-13.4l-8.1-30.3c-2.1-7.8-4.3-18-4.3-18H414c0,0-1,6.5-4.3,18.6l-7.9,29.7h-13.4l-18-65.2l14.2-2
			l7.2,31.9c1.8,8.2,3.4,17.3,3.4,17.3h0.4c0,0,1.3-8.6,3.8-17.7l8.5-30.5h14.1l7.4,29.7c2.7,10.7,4.2,18.8,4.2,18.8h0.4
			c0,0,1.6-10,3.3-17.7l6.8-30.7h14.8L440,278z"/>
		<path class="st2" d="M270.6,393.7l-7.8-13.9c-6.3-11.1-10.4-17.3-15.4-22.3c-1.7-1.7-3-2.6-5.9-2.7v38.9h-14.7v-90.1h27.5
			c20.2,0,29.3,11.7,29.3,25.8c0,12.9-8.3,24.7-22.4,24.7c3.3,1.7,9.2,10.4,13.9,18l13.3,21.6H270.6z M249.8,315.7h-8.2v28.5h7.7
			c7.8,0,12-1,14.7-3.8c2.5-2.5,4-6.3,4-10.9C268,320.4,263.1,315.7,249.8,315.7z"/>
		<path class="st2" d="M308.1,364.7v1c0,9.1,3.4,18.8,16.3,18.8c6.1,0,11.5-2.2,16.4-6.5l5.6,8.7c-6.9,5.9-14.8,8.7-23.7,8.7
			c-18.6,0-30.3-13.4-30.3-34.5c0-11.6,2.5-19.3,8.2-25.8c5.3-6.1,11.9-8.9,20.2-8.9c6.5,0,12.5,1.7,18.1,6.8
			c5.7,5.2,8.6,13.3,8.6,28.7v3H308.1z M320.8,337.1c-8.1,0-12.5,6.4-12.5,17.1h24.4C332.6,343.4,327.9,337.1,320.8,337.1z"/>
		<path class="st2" d="M374.3,395.1c-14.5,0-14.5-13-14.5-18.6v-56.1c0-9-0.4-13.8-1.3-19.3l14.7-3.3c1,4,1.2,9.5,1.2,18.1v55.9
			c0,8.9,0.4,10.3,1.4,11.9c0.8,1.2,3,1.8,4.7,1l2.3,8.9C380.3,394.6,377.6,395.1,374.3,395.1z"/>
		<path class="st2" d="M399.2,318.1c-5.2,0-9.2-4.3-9.2-9.5c0-5.3,4.2-9.6,9.5-9.6c5.1,0,9.4,4.2,9.4,9.6
			C408.8,313.8,404.5,318.1,399.2,318.1z M392,393.7v-64.9l14.5-2.6v67.5H392z"/>
		<path class="st2" d="M447.5,395.4c-18,0-28-12.6-28-33.9c0-24,14.3-35.4,29-35.4c7.2,0,12.4,1.7,18.2,7.2l-7.2,9.5
			c-3.9-3.5-7.3-5.1-11.1-5.1c-4.6,0-8.3,2.3-10.4,6.6c-2,4-2.7,10.2-2.7,18.4c0,9,1.4,14.7,4.4,18c2.1,2.3,5.2,3.8,8.7,3.8
			c4.6,0,9-2.2,13.3-6.5l6.8,8.7C462.6,392.7,456.3,395.4,447.5,395.4z"/>
		<path class="st2" d="M480.8,395.2c-5.3,0-9.6-4.3-9.6-9.7c0-5.4,4.3-9.7,9.6-9.7c5.3,0,9.6,4.3,9.6,9.7
			C490.4,390.9,486.1,395.2,480.8,395.2z M480.8,377.7c-4.1,0-7.4,3.4-7.4,7.7c0,4.3,3.3,7.8,7.4,7.8c4.1,0,7.4-3.5,7.4-7.8
			C488.2,381.2,484.9,377.7,480.8,377.7z M482.7,390.8c-0.4-0.7-0.6-1-1-1.8c-1.1-2-1.4-2.5-1.8-2.7c-0.1-0.1-0.2-0.1-0.3-0.1v4.5
			h-2.1V380h4c1.9,0,3.2,1.3,3.2,3.2c0,1.6-1.1,3-2.4,3c0.2,0.2,0.3,0.3,0.4,0.5c0.6,0.8,2.6,4.2,2.6,4.2H482.7z M481.6,381.9
			c-0.2-0.1-0.7-0.2-1.2-0.2h-0.8v2.9h0.7c0.9,0,1.4-0.1,1.6-0.4c0.3-0.3,0.4-0.7,0.4-1.1C482.3,382.5,482.1,382.1,481.6,381.9z"/>
	</g>
</g>
</svg>
