<?xml version="1.0" encoding="utf-8"?>
<!-- Generator: Adobe Illustrator 19.0.0, SVG Export Plug-In . SVG Version: 6.00 Build 0)  -->
<svg version="1.1" id="Layer_1" xmlns="http://www.w3.org/2000/svg" xmlns:xlink="http://www.w3.org/1999/xlink" x="0px" y="0px"
	 viewBox="0 0 500 500" style="enable-background:new 0 0 500 500;" xml:space="preserve">
<rect id="XMLID_1_" style="fill:#1F293A;" width="500" height="500"/>
<path id="XMLID_5_" style="fill:#4CB748;" d="M427.8,59.5v79.2h-16.4h-39.5H331c-34.7,0-63,28.3-63,63v97c0,34.6,28.3,63,63,63h80.4
	c34.6,0,63-28.4,63-63v-29.8v-67.2V59.5H427.8z M427.8,201.1v33V297c0,8.9-7.3,16.2-16.2,16.2h-79.4c-8.9,0-16.2-7.3-16.2-16.2
	v-95.9c0-8.9,7.3-16.2,16.2-16.2h39.7h39.7h16.2V201.1z"/>
<path id="XMLID_2_" style="fill:#4CB748;" d="M72.9,440.9v-79.2h16.4h39.5h40.9c34.6,0,63-28.4,63-63v-97c0-34.7-28.4-63-63-63H89.2
	c-34.7,0-63,28.3-63,63v29.8v67.2v142.2H72.9z M72.9,299.3v-33v-62.9c0-8.9,7.3-16.2,16.2-16.2h79.4c8.9,0,16.2,7.3,16.2,16.2v95.9
	c0,8.9-7.3,16.2-16.2,16.2h-39.7H89.1H72.9V299.3z"/>
</svg>
