<svg id="Layer_1" data-name="Layer 1" xmlns="http://www.w3.org/2000/svg" viewBox="0 0 253.07 253.07"><title>new</title><path d="M305.64,269.89a126.51,126.51,0,0,0-66,234.47l37.78-71.26-67.46,0a101.47,101.47,0,0,1-6.75-36.65c0-56.49,46.11-102.45,102.61-102.45a101.59,101.59,0,0,1,14.52,1L308.8,306.6c-1.06,0-2.1-.06-3.16-0.06a90,90,0,0,0-89.88,89.88,91.58,91.58,0,0,0,3.36,24.45h78.66l-32.85,62,79.5-80.29H236.32L357.74,281.12a125.8,125.8,0,0,0-52.1-11.23" transform="translate(-179.1 -269.89)" style="fill:#e12826"/><path d="M371.61,288.48l-37.79,71.26h67.44a102.36,102.36,0,0,1-95.62,139.13,103.4,103.4,0,0,1-15-1.09l11.44-11.56c1.18,0,2.36.08,3.54,0.08a90,90,0,0,0,89.89-89.88s0-13.07-3.38-24.45H313.5l32.85-62-80.72,80.29H374L253.54,511.73A126.51,126.51,0,0,0,371.61,288.48Z" transform="translate(-179.1 -269.89)" style="fill:#e12826"/></svg>