<?xml version="1.0" encoding="utf-8"?>
<!-- Generator: Adobe Illustrator 19.2.1, SVG Export Plug-In . SVG Version: 6.00 Build 0)  -->
<svg version="1.1" id="Layer_1" xmlns="http://www.w3.org/2000/svg" xmlns:xlink="http://www.w3.org/1999/xlink" x="0px" y="0px"
	 viewBox="0 0 24 24" xml:space="preserve">
<g>
	<g style="opacity:0.4;">
		<path style="fill:#C0E6FF;" d="M14.4,18c-1.4,0.2-2.7-0.3-3.8-1.3c-0.8-0.8-1.3-1.8-1.5-2.9c-0.3-2.6,1.6-4.9,4.2-5.2
			c2.6-0.3,4.9,1.6,5.2,4.2C18.9,15.4,17,17.7,14.4,18z"/>
	</g>
	<g>
		<path style="fill:#FF7832;" d="M10.8,3.9c0-1.4-1.1-2.5-2.5-2.5S5.9,2.5,5.9,3.9c0,0.5,0.2,1,0.4,1.4L3.8,7.7
			C3.4,7.5,3,7.3,2.6,7.3c-1.4,0-2.5,1.1-2.5,2.5s1.1,2.5,2.5,2.5S5,11.2,5,9.8c0-0.6-0.2-1.1-0.5-1.5L7,5.9
			c0.4,0.3,0.9,0.4,1.4,0.4c0.3,0,0.6-0.1,0.8-0.1l1.8,3l0.8-0.5l-1.8-3C10.5,5.2,10.8,4.6,10.8,3.9z M2.6,11.3
			c-0.8,0-1.5-0.7-1.5-1.5s0.7-1.5,1.5-1.5S4.1,9,4.1,9.8S3.4,11.3,2.6,11.3z M8.4,5.4c-0.8,0-1.5-0.7-1.5-1.5s0.7-1.5,1.5-1.5
			S9.9,3,9.9,3.9S9.2,5.4,8.4,5.4z"/>
		<path style="fill:#FF7832;" d="M21.4,3.4c-1.4,0-2.5,1.1-2.5,2.5c0,0.5,0.2,1,0.4,1.4l-2.2,2.1l0.7,0.7L20.1,8
			c0.4,0.3,0.8,0.4,1.3,0.4c1.4,0,2.5-1.1,2.5-2.5S22.8,3.4,21.4,3.4z M21.4,7.4c-0.8,0-1.5-0.7-1.5-1.5s0.7-1.5,1.5-1.5
			s1.5,0.7,1.5,1.5S22.3,7.4,21.4,7.4z"/>
	</g>
	<path style="fill:#AD1625;" d="M17.9,10.2l-0.7-0.7l-1.9,1.8c-0.4-0.3-0.9-0.5-1.5-0.5c-0.2,0-0.5,0-0.7,0.1l-1.4-2.2L11,9.2
		l1.3,2.2c-0.6,0.5-0.9,1.1-0.9,1.9c0,1.4,1.1,2.5,2.5,2.5s2.5-1.1,2.5-2.5c0-0.5-0.1-0.9-0.4-1.3L17.9,10.2z M13.9,14.8
		c-0.8,0-1.5-0.7-1.5-1.5s0.7-1.5,1.5-1.5c0.8,0,1.5,0.7,1.5,1.5S14.7,14.8,13.9,14.8z"/>
	<path style="fill:#264A60;" d="M13.9,6.9c-3.5,0-6.3,2.9-6.3,6.4c0,1.4,0.5,2.8,1.3,3.9l-4.1,4l1.2,1.2l4.1-4
		c1.1,0.8,2.4,1.3,3.8,1.3c3.5,0,6.3-2.9,6.3-6.4S17.4,6.9,13.9,6.9z M13.9,17.9c-1.2,0-2.4-0.5-3.2-1.3c-0.9-0.9-1.4-2-1.4-3.3
		c0-2.6,2.1-4.6,4.6-4.6s4.6,2.1,4.6,4.6S16.4,17.9,13.9,17.9z"/>
</g>
</svg>
