<?xml version="1.0" encoding="utf-8"?>
<!-- Generator: Adobe Illustrator 19.2.1, SVG Export Plug-In . SVG Version: 6.00 Build 0)  -->
<svg version="1.1" id="Layer_1" xmlns="http://www.w3.org/2000/svg" xmlns:xlink="http://www.w3.org/1999/xlink" x="0px" y="0px"
	 viewBox="0 0 100 100" style="enable-background:new 0 0 100 100;" xml:space="preserve">
<style type="text/css">
	.st0{fill:#2E3737;}
	.st1{fill:#586565;}
	.st2{fill:#FCE77F;}
	.st3{fill:#FCD432;}
	.st4{fill:#030506;}
	.st5{fill:#3D4747;}
	.st6{fill:#975AD1;}
	.st7{fill:#FC42A0;}
	.st8{fill:#64BC46;}
</style>
<path class="st0" d="M58.4,74.4l-16.3,1.1c-1.5,0.1-2.7-1-2.9-2.5l0,0c-0.1-1.5,1-2.7,2.5-2.9L58,69c1.5-0.1,2.7,1,2.9,2.5l0,0
	C61,73,59.9,74.3,58.4,74.4z"/>
<path class="st0" d="M58.4,82.3l-16.3,1.1c-1.5,0.1-2.7-1-2.9-2.5l0,0c-0.1-1.5,1-2.7,2.5-2.9l16.4-1c1.5-0.1,2.7,1,2.9,2.5l0,0
	C61,80.9,59.9,82.2,58.4,82.3z"/>
<g>
	<path class="st1" d="M41.7,86.1c-0.1,0-0.2,0-0.3,0c0.5,4.6,4.2,8.1,8.7,8.1c4.8,0,8.7-4.1,8.7-9.2c0-0.1,0-0.1,0-0.2L41.7,86.1z"
		/>
</g>
<g>
	<path class="st2" d="M75.9,31.2C75.9,17,64.3,5.4,50.1,5.4S24.3,17,24.3,31.2c0,6.6,2.5,12.6,6.5,17.1c4,5.1,6,6.7,6,15.2v0.6
		c0,1.2,1,2.2,2.2,2.2h22c1.2,0,2.2-1,2.2-2.2v-0.5c0-8.9,2.2-10.2,6.7-16H70C73.7,43.2,75.9,37.4,75.9,31.2z"/>
	<path class="st2" d="M70.1,47.6l0.3-0.5C70.3,47.3,70.2,47.5,70.1,47.6L70.1,47.6z"/>
</g>
<path class="st3" d="M75.9,31.2C75.9,17,64.3,5.4,50.1,5.4v60.9h11c1.2,0,2.2-1,2.2-2.2v-0.5c0-8.9,2.2-10.2,6.7-16l0,0
	C73.7,43.2,75.9,37.4,75.9,31.2z"/>
<path class="st4" d="M60.9,79.9V79c-0.1-1.2-1.2-2.2-2.4-2.1l-8.4,0.6v5.4l8.8-0.6C60.1,82.2,61,81.1,60.9,79.9z"/>
<path class="st4" d="M60.9,72l-0.1-0.8c-0.1-1.2-1.2-2.2-2.4-2.1L50,69.7V75l8.8-0.6C60.1,74.3,61,73.2,60.9,72z"/>
<path class="st5" d="M58.8,84.9l-8.7,0.6v8.7C54.9,94.2,58.8,90.1,58.8,84.9C58.8,85,58.8,85,58.8,84.9z"/>
<circle class="st6" cx="50.1" cy="31.6" r="16"/>
<path class="st7" d="M50.1,15.5v32.1c8.9,0,16-7.2,16-16S59,15.5,50.1,15.5z"/>
<path class="st8" d="M62.4,41.9c3.2-3.8,4.3-8.6,3.5-13.1l-15.8,2.8L39.8,43.8C46.6,49.5,56.7,48.7,62.4,41.9z"/>
</svg>
