<?xml version="1.0" encoding="utf-8"?>
<!-- Generator: Adobe Illustrator 19.2.1, SVG Export Plug-In . SVG Version: 6.00 Build 0)  -->
<svg version="1.1" id="Layer_1" xmlns="http://www.w3.org/2000/svg" xmlns:xlink="http://www.w3.org/1999/xlink" x="0px" y="0px"
	 viewBox="0 0 100 100" style="enable-background:new 0 0 100 100;" xml:space="preserve">
<style type="text/css">
	.st0{fill:#231F20;}
	.st1{fill:#B992F4;}
	.st2{fill:#FCD430;}
	.st3{fill:#1CB3A0;}
	.st4{fill:#FFFFFF;}
</style>
<path id="XMLID_17_" class="st0" d="M80.4,97.2h-61c-8.8,0-16-7.2-16-16V19c0-8.8,7.2-16,16-16h61.1c8.8,0,16,7.2,16,15.4v62.1
	C96.4,90,89.3,97.2,80.4,97.2z"/>
<circle id="XMLID_16_" class="st1" cx="56.9" cy="29.5" r="8.9"/>
<circle id="XMLID_15_" class="st2" cx="44.2" cy="51" r="8.9"/>
<circle id="XMLID_14_" class="st3" cx="31.6" cy="72.5" r="8.9"/>
<g>
	<path class="st4" d="M16.4,51.3l12.5,5v3.9l-17.3-6.8v-4l17.3-6.9v3.9L16.4,51.3z"/>
	<path class="st4" d="M70.2,39.4l-9.5,25.4h-3.8l9.5-25.4H70.2z"/>
	<path class="st4" d="M85.4,51.3l-12.5-5v-3.9l17.3,6.9v4l-17.3,6.8v-3.9L85.4,51.3z"/>
</g>
</svg>
