<?xml version="1.0" encoding="utf-8"?>
<!-- Generator: Adobe Illustrator 19.2.1, SVG Export Plug-In . SVG Version: 6.00 Build 0)  -->
<svg version="1.1" id="Layer_1" xmlns="http://www.w3.org/2000/svg" xmlns:xlink="http://www.w3.org/1999/xlink" x="0px" y="0px"
	 viewBox="0 0 32 32" style="enable-background:new 0 0 32 32;" xml:space="preserve">
<style type="text/css">
	.st0{fill:none;}
	.st1{fill:#3B4B54;}
	.st2{fill:#0883A5;}
	.st3{fill:#00AED1;}
	.st4{fill:#027C68;}
	.st5{fill:#00B199;}
	.st6{fill:#243238;}
</style>
<title>gitBlueMix-144</title>
<g>
	<path class="st0" d="M8.5,17.7c-6-7.3,1.1-17,2.3-17"/>
	<path class="st1" d="M8.7,17.9c-0.1,0-0.3,0-0.4-0.1c-0.1,0-0.3,0-0.6-0.1c-4.1-0.6-6.4-3-7.5-4.8c-1.5,7.9,3.1,13.5,5.2,15.1
		c2.3,0,5.9-0.9,8.5-4.8C12.5,22.8,9.6,21.4,8.7,17.9z"/>
	<path class="st2" d="M14,23.2c-0.1,0.1-0.2,0.2-0.2,0.3c-0.1,0.1-0.2,0.3-0.3,0.4c-2.5,3.2-5.8,4-7.9,4.1
		c6.1,5.3,13.2,4.1,15.7,3.1c1.1-2,2.2-5.6,0.1-9.8C20.1,22.4,17.4,24.3,14,23.2z"/>
	<path class="st3" d="M21.3,21.3c0.1,0.1,0.1,0.2,0.1,0.4c0.1,0.1,0.1,0.3,0.2,0.5c1.5,3.8,0.6,7-0.4,8.9
		c7.6-2.7,10.1-9.4,10.5-12.1c-1.2-2-3.7-4.7-8.4-5C23.6,15.6,23.9,18.9,21.3,21.3z"/>
	<path class="st4" d="M23.3,14.1c0.1,0,0.3,0,0.4,0.1c0.1,0,0.3,0,0.6,0.1c4.1,0.6,6.4,3,7.5,4.8c1.5-7.9-3.1-13.5-5.2-15.1
		c-2.3,0-5.9,0.9-8.5,4.8C19.5,9.2,22.4,10.6,23.3,14.1z"/>
	<path class="st5" d="M18,8.8c0.1-0.1,0.2-0.2,0.2-0.3c0.1-0.1,0.2-0.3,0.3-0.4c2.5-3.2,5.8-4,7.9-4.1c-6.1-5.3-13.2-4.1-15.7-3.1
		c-1.1,2-2.2,5.6-0.1,9.8C11.9,9.6,14.6,7.7,18,8.8z"/>
	<path class="st6" d="M10.7,10.7c-0.1-0.1-0.1-0.2-0.1-0.4c-0.1-0.1-0.1-0.3-0.2-0.5c-1.5-3.8-0.6-7,0.4-8.9
		C3.2,3.5,0.7,10.3,0.3,12.9c1.2,2,3.7,4.7,8.4,5C8.4,16.4,8.1,13.1,10.7,10.7z"/>
</g>
</svg>
